<svg xmlns="http://www.w3.org/2000/svg" xmlns:xlink="http://www.w3.org/1999/xlink" version="1.1" width="256" height="256" viewBox="0 0 256 256" xml:space="preserve">
<desc>Created with Fabric.js 1.7.22</desc>
<defs>
</defs>
<g transform="translate(128 128) scale(0.72 0.72)" style="">
	<g style="stroke: none; stroke-width: 0; stroke-dasharray: none; stroke-linecap: butt; stroke-linejoin: miter; stroke-miterlimit: 10; fill: none; fill-rule: nonzero; opacity: 1;" transform="translate(-175.05 -175.05000000000004) scale(3.89 3.89)" >
	<path d="M 77.307 20.733 H 62.35 c -2.358 0 -4.276 -1.919 -4.276 -4.277 V 1.5 h 3 v 14.956 c 0 0.704 0.572 1.277 1.276 1.277 h 14.957 V 20.733 z" style="stroke: none; stroke-width: 1; stroke-dasharray: none; stroke-linecap: butt; stroke-linejoin: miter; stroke-miterlimit: 10; fill: rgb(0,0,0); fill-rule: nonzero; opacity: 1;" transform=" matrix(1 0 0 1 0 0) " stroke-linecap="round" />
	<path d="M 74.258 90 H 15.742 c -2.508 0 -4.548 -2.04 -4.548 -4.548 V 4.548 C 11.194 2.04 13.234 0 15.742 0 h 42.569 c 1.215 0 2.357 0.473 3.216 1.332 L 77.474 17.28 c 0.859 0.858 1.333 2.001 1.333 3.216 v 64.957 C 78.807 87.96 76.766 90 74.258 90 z M 15.742 3 c -0.854 0 -1.548 0.694 -1.548 1.548 v 80.904 c 0 0.854 0.694 1.548 1.548 1.548 h 58.516 c 0.854 0 1.549 -0.694 1.549 -1.548 V 20.496 c 0 -0.413 -0.161 -0.802 -0.454 -1.094 L 59.405 3.453 C 59.117 3.165 58.718 3 58.311 3 H 15.742 z" style="stroke: none; stroke-width: 1; stroke-dasharray: none; stroke-linecap: butt; stroke-linejoin: miter; stroke-miterlimit: 10; fill: rgb(0,0,0); fill-rule: nonzero; opacity: 1;" transform=" matrix(1 0 0 1 0 0) " stroke-linecap="round" />
	<path d="M 49.257 34.775 h -8.513 c -1.499 0 -2.717 1.219 -2.717 2.718 v 12.842 c -0.751 -0.095 -1.538 0.146 -2.114 0.723 l -6.27 6.27 c -0.48 0.479 -0.744 1.117 -0.744 1.796 s 0.264 1.316 0.744 1.796 l 13.561 13.563 c 0.479 0.479 1.117 0.744 1.795 0.744 c 0.003 0 0.007 -0.001 0.009 0 c 0.673 0 1.31 -0.264 1.79 -0.744 l 13.562 -13.563 c 0.479 -0.479 0.744 -1.117 0.744 -1.796 s -0.265 -1.316 -0.744 -1.796 l -6.271 -6.27 c -0.576 -0.576 -1.363 -0.818 -2.114 -0.723 V 37.493 C 51.974 35.994 50.755 34.775 49.257 34.775 z M 41.026 37.775 h 7.947 v 19.044 l 3.318 -3.315 l 5.62 5.619 L 45 72.037 L 32.088 59.123 l 5.62 -5.619 l 3.318 3.315 V 37.775 z" style="stroke: none; stroke-width: 1; stroke-dasharray: none; stroke-linecap: butt; stroke-linejoin: miter; stroke-miterlimit: 10; fill: rgb(0,0,0); fill-rule: nonzero; opacity: 1;" transform=" matrix(1 0 0 1 0 0) " stroke-linecap="round" />
</g>
</g>
</svg>